<?xml version="1.0" encoding="utf-8" ?>
<svg baseProfile="full" height="950" version="1.1" width="2500" xmlns="http://www.w3.org/2000/svg" xmlns:ev="http://www.w3.org/2001/xml-events" xmlns:xlink="http://www.w3.org/1999/xlink"><defs /><svg height="950" stroke="none" width="2500" x="0" y="0"><defs /><rect fill="none" height="950" stroke="none" width="2500" x="0" y="0" /><rect fill="none" height="150" opacity="1" rx="0" ry="0" stroke="gray" stroke-dasharray="360.0" stroke-width="1" width="29.999999999999996" x="150" y="150" /><text dy="-0.3em" fill="black" font-family="Arial" font-size="10" font-style="normal" letter-spacing="0" style="text-anchor: middle" x="165.0" y="150">chr5</text><text dy="1em" fill="black" font-family="Arial" font-size="10" font-style="normal" letter-spacing="0" style="text-anchor: middle" x="165.0" y="300">chr5:174.057021-174.059021|0.002M</text><text dx="-0.5em" dy="0.3em" fill="black" font-family="Arial" font-size="10" font-style="normal" letter-spacing="0" style="text-anchor: end" x="150" y="225.0">single_translocation1</text><path d="M 165.0,250 v -100 C 165.0,175.0 215.0,175.0 215.0,150 v 100" fill="none" opacity="1" stroke="orange" stroke-dasharray="300.0" /><rect fill="orange" height="5" opacity="1" rx="0" ry="0" stroke="none" stroke-dasharray="20" stroke-width="1" width="5" x="162.5" y="245" /><rect fill="orange" height="5" opacity="1" rx="0" ry="0" stroke="none" stroke-dasharray="20" stroke-width="1" width="5" x="212.5" y="245" /><rect fill="none" height="150" opacity="1" rx="0" ry="0" stroke="gray" stroke-dasharray="360.0" stroke-width="1" width="29.999999999999996" x="200.0" y="150" /><text dy="-0.3em" fill="black" font-family="Arial" font-size="10" font-style="normal" letter-spacing="0" style="text-anchor: middle" x="215.0" y="150">chrX</text><text dy="1em" fill="black" font-family="Arial" font-size="10" font-style="normal" letter-spacing="0" style="text-anchor: middle" x="215.0" y="300">chrX:126.743483-126.745483|0.002M</text><path d="M 165.0,250 v -100 C 165.0,175.0 215.0,175.0 215.0,150 v 100" fill="none" opacity="1" stroke="orange" stroke-dasharray="300.0" /><rect fill="orange" height="5" opacity="1" rx="0" ry="0" stroke="none" stroke-dasharray="20" stroke-width="1" width="5" x="162.5" y="245" /><rect fill="orange" height="5" opacity="1" rx="0" ry="0" stroke="none" stroke-dasharray="20" stroke-width="1" width="5" x="212.5" y="245" /><rect fill="none" height="150" opacity="1" rx="0" ry="0" stroke="gray" stroke-dasharray="360.0" stroke-width="1" width="29.999999999999996" x="150" y="350" /><text dy="-0.3em" fill="black" font-family="Arial" font-size="10" font-style="normal" letter-spacing="0" style="text-anchor: middle" x="165.0" y="350">chr9</text><text dy="1em" fill="black" font-family="Arial" font-size="10" font-style="normal" letter-spacing="0" style="text-anchor: middle" x="165.0" y="500">chr9:9.057751-9.059751|0.002M</text><text dx="-0.5em" dy="0.3em" fill="black" font-family="Arial" font-size="10" font-style="normal" letter-spacing="0" style="text-anchor: end" x="150" y="425.0">single_translocation2</text><path d="M 165.0,450 v -100 C 165.0,375.0 215.0,375.0 215.0,350 v 100" fill="none" opacity="1" stroke="blue" stroke-dasharray="300.0" /><rect fill="none" height="150" opacity="1" rx="0" ry="0" stroke="gray" stroke-dasharray="360.0" stroke-width="1" width="29.999999999999996" x="200.0" y="350" /><text dy="-0.3em" fill="black" font-family="Arial" font-size="10" font-style="normal" letter-spacing="0" style="text-anchor: middle" x="215.0" y="350">chr15</text><text dy="1em" fill="black" font-family="Arial" font-size="10" font-style="normal" letter-spacing="0" style="text-anchor: middle" x="215.0" y="500">chr15:25.854251-25.856251|0.002M</text><path d="M 165.0,450 v -100 C 165.0,375.0 215.0,375.0 215.0,350 v 100" fill="none" opacity="1" stroke="blue" stroke-dasharray="300.0" /><rect fill="none" height="150" opacity="1" rx="0" ry="0" stroke="gray" stroke-dasharray="360.0" stroke-width="1" width="29.999999999999996" x="150" y="550" /><text dy="-0.3em" fill="black" font-family="Arial" font-size="10" font-style="normal" letter-spacing="0" style="text-anchor: middle" x="165.0" y="550">chr9</text><text dy="1em" fill="black" font-family="Arial" font-size="10" font-style="normal" letter-spacing="0" style="text-anchor: middle" x="165.0" y="700">chr9:44.760503-44.762503|0.002M</text><text dx="-0.5em" dy="0.3em" fill="black" font-family="Arial" font-size="10" font-style="normal" letter-spacing="0" style="text-anchor: end" x="150" y="625.0">single_translocation3</text><path d="M 165.0,650 v -100 C 165.0,575.0 215.0,575.0 215.0,550 v 100" fill="none" opacity="1" stroke="blue" stroke-dasharray="300.0" /><rect fill="none" height="150" opacity="1" rx="0" ry="0" stroke="gray" stroke-dasharray="360.0" stroke-width="1" width="29.999999999999996" x="200.0" y="550" /><text dy="-0.3em" fill="black" font-family="Arial" font-size="10" font-style="normal" letter-spacing="0" style="text-anchor: middle" x="215.0" y="550">chr9</text><text dy="1em" fill="black" font-family="Arial" font-size="10" font-style="normal" letter-spacing="0" style="text-anchor: middle" x="215.0" y="700">chr9:47.165979-47.167979|0.002M</text><path d="M 165.0,650 v -100 C 165.0,575.0 215.0,575.0 215.0,550 v 100" fill="none" opacity="1" stroke="blue" stroke-dasharray="300.0" /><svg height="40" width="368" x="1250.0" y="0"><defs /><svg height="10.0" width="368.0" x="0" y="0"><defs /><text dy="0.3em" fill="black" font-family="Arial" font-size="10" font-style="normal" letter-spacing="0" style="text-anchor: middle" x="184.0" y="5.0" /></svg><svg height="10.0" width="368.0" x="0" y="10.0"><defs /><text dy="0.3em" fill="black" font-family="Arial" font-size="10" font-style="normal" letter-spacing="0" style="text-anchor: middle" x="184.0" y="5.0">Join Type</text></svg><svg height="10.0" width="368.0" x="0" y="20.0"><defs /><text dy="0.3em" fill="black" font-family="Arial" font-size="10" font-style="normal" letter-spacing="0" style="text-anchor: middle" x="184.0" y="5.0">Info: Please tell something about this figure.</text></svg><svg height="10.0" width="368.0" x="0" y="30.0"><defs /><text dy="0.3em" fill="black" font-family="Arial" font-size="10" font-style="normal" letter-spacing="0" style="text-anchor: middle" x="184.0" y="5.0" /></svg></svg><svg height="70" width="224" x="1250.0" y="950"><defs /><svg height="10.0" width="224.0" x="0" y="0"><defs /><text dy="0.3em" fill="black" font-family="Arial" font-size="10" font-style="normal" letter-spacing="0" style="text-anchor: middle" x="112.0" y="5.0" /></svg><svg height="10.0" width="224.0" x="0" y="10.0"><defs /><text dy="0.3em" fill="black" font-family="Arial" font-size="10" font-style="normal" letter-spacing="0" style="text-anchor: middle" x="112.0" y="5.0">Join Type</text></svg><svg height="10.0" width="224.0" x="0" y="20.0"><defs /><text dy="0.3em" fill="black" font-family="Arial" font-size="10" font-style="normal" letter-spacing="0" style="text-anchor: middle" x="112.0" y="5.0">v0.0</text></svg><svg height="10.0" width="224.0" x="0" y="30.0"><defs /><text dy="0.3em" fill="black" font-family="Arial" font-size="10" font-style="normal" letter-spacing="0" style="text-anchor: middle" x="112.0" y="5.0">Author: Lingxi Chen</text></svg><svg height="10.0" width="224.0" x="0" y="40.0"><defs /><text dy="0.3em" fill="black" font-family="Arial" font-size="10" font-style="normal" letter-spacing="0" style="text-anchor: middle" x="112.0" y="5.0">Email: chanlingxi@gmail.com</text></svg><svg height="10.0" width="224.0" x="0" y="50.0"><defs /><text dy="0.3em" fill="black" font-family="Arial" font-size="10" font-style="normal" letter-spacing="0" style="text-anchor: middle" x="112.0" y="5.0">City University of Hong Kong</text></svg><svg height="10.0" width="224.0" x="0" y="60.0"><defs /><text dy="0.3em" fill="black" font-family="Arial" font-size="10" font-style="normal" letter-spacing="0" style="text-anchor: middle" x="112.0" y="5.0" /></svg></svg></svg></svg>