<?xml version="1.0" encoding="utf-8" ?>
<svg baseProfile="full" height="2200" version="1.1" width="2500" xmlns="http://www.w3.org/2000/svg" xmlns:ev="http://www.w3.org/2001/xml-events" xmlns:xlink="http://www.w3.org/1999/xlink"><defs /><svg height="2200" stroke="none" width="2500" x="0" y="0"><defs /><rect fill="none" height="2200" stroke="none" width="2500" x="0" y="0" /><rect fill="none" height="150" opacity="1" rx="0" ry="0" stroke="gray" stroke-dasharray="360.0" stroke-width="1" width="29.999999999999996" x="150" y="150" /><text dy="-0.3em" fill="black" font-family="Arial" font-size="10" font-style="normal" letter-spacing="0" style="text-anchor: middle" x="165.0" y="150">chr1</text><text dy="1em" fill="black" font-family="Arial" font-size="10" font-style="normal" letter-spacing="0" style="text-anchor: middle" x="165.0" y="300">chr1:99.678031-99.680031|0.002M</text><text dx="-0.5em" dy="0.3em" fill="black" font-family="Arial" font-size="10" font-style="normal" letter-spacing="0" style="text-anchor: end" x="150" y="225.0">single_translocation1</text><path d="M 215.0,250 v -100 C 215.0,125.0 165.0,125.0 165.0,150 v 100" fill="none" opacity="1" stroke="red" stroke-dasharray="100.0" /><rect fill="red" height="5" opacity="1" rx="0" ry="0" stroke="none" stroke-dasharray="20" stroke-width="1" width="5" x="212.5" y="245" /><rect fill="red" height="5" opacity="1" rx="0" ry="0" stroke="none" stroke-dasharray="20" stroke-width="1" width="5" x="162.5" y="245" /><rect fill="none" height="150" opacity="1" rx="0" ry="0" stroke="gray" stroke-dasharray="360.0" stroke-width="1" width="29.999999999999996" x="200.0" y="150" /><text dy="-0.3em" fill="black" font-family="Arial" font-size="10" font-style="normal" letter-spacing="0" style="text-anchor: middle" x="215.0" y="150">chr8</text><text dy="1em" fill="black" font-family="Arial" font-size="10" font-style="normal" letter-spacing="0" style="text-anchor: middle" x="215.0" y="300">chr8:115.78762-115.78962|0.002M</text><path d="M 215.0,250 v -100 C 215.0,125.0 165.0,125.0 165.0,150 v 100" fill="none" opacity="1" stroke="red" stroke-dasharray="100.0" /><rect fill="red" height="5" opacity="1" rx="0" ry="0" stroke="none" stroke-dasharray="20" stroke-width="1" width="5" x="212.5" y="245" /><rect fill="red" height="5" opacity="1" rx="0" ry="0" stroke="none" stroke-dasharray="20" stroke-width="1" width="5" x="162.5" y="245" /><rect fill="none" height="150" opacity="1" rx="0" ry="0" stroke="gray" stroke-dasharray="360.0" stroke-width="1" width="29.999999999999996" x="150" y="350" /><text dy="-0.3em" fill="black" font-family="Arial" font-size="10" font-style="normal" letter-spacing="0" style="text-anchor: middle" x="165.0" y="350">chr2</text><text dy="1em" fill="black" font-family="Arial" font-size="10" font-style="normal" letter-spacing="0" style="text-anchor: middle" x="165.0" y="500">chr2:50.924555-50.926555|0.002M</text><text dx="-0.5em" dy="0.3em" fill="black" font-family="Arial" font-size="10" font-style="normal" letter-spacing="0" style="text-anchor: end" x="150" y="425.0">single_translocation2</text><path d="M 165.0,450 v -100 C 165.0,325.0 215.0,325.0 215.0,350 v 100" fill="none" opacity="1" stroke="green" stroke-dasharray="300.0" /><rect fill="none" height="150" opacity="1" rx="0" ry="0" stroke="gray" stroke-dasharray="360.0" stroke-width="1" width="29.999999999999996" x="200.0" y="350" /><text dy="-0.3em" fill="black" font-family="Arial" font-size="10" font-style="normal" letter-spacing="0" style="text-anchor: middle" x="215.0" y="350">chr15</text><text dy="1em" fill="black" font-family="Arial" font-size="10" font-style="normal" letter-spacing="0" style="text-anchor: middle" x="215.0" y="500">chr15:60.830403-60.832403|0.002M</text><path d="M 165.0,450 v -100 C 165.0,325.0 215.0,325.0 215.0,350 v 100" fill="none" opacity="1" stroke="green" stroke-dasharray="300.0" /><rect fill="none" height="150" opacity="1" rx="0" ry="0" stroke="gray" stroke-dasharray="360.0" stroke-width="1" width="29.999999999999996" x="150" y="550" /><text dy="-0.3em" fill="black" font-family="Arial" font-size="10" font-style="normal" letter-spacing="0" style="text-anchor: middle" x="165.0" y="550">chr3</text><text dy="1em" fill="black" font-family="Arial" font-size="10" font-style="normal" letter-spacing="0" style="text-anchor: middle" x="165.0" y="700">chr3:119.430705-119.432705|0.002M</text><text dx="-0.5em" dy="0.3em" fill="black" font-family="Arial" font-size="10" font-style="normal" letter-spacing="0" style="text-anchor: end" x="150" y="625.0">single_translocation3</text><path d="M 165.0,650 v -100 C 165.0,575.0 215.0,575.0 215.0,550 v 100" fill="none" opacity="1" stroke="blue" stroke-dasharray="300.0" /><rect fill="none" height="150" opacity="1" rx="0" ry="0" stroke="gray" stroke-dasharray="360.0" stroke-width="1" width="29.999999999999996" x="200.0" y="550" /><text dy="-0.3em" fill="black" font-family="Arial" font-size="10" font-style="normal" letter-spacing="0" style="text-anchor: middle" x="215.0" y="550">chr21</text><text dy="1em" fill="black" font-family="Arial" font-size="10" font-style="normal" letter-spacing="0" style="text-anchor: middle" x="215.0" y="700">chr21:30.381812-30.383812|0.002M</text><path d="M 165.0,650 v -100 C 165.0,575.0 215.0,575.0 215.0,550 v 100" fill="none" opacity="1" stroke="blue" stroke-dasharray="300.0" /><rect fill="none" height="150" opacity="1" rx="0" ry="0" stroke="gray" stroke-dasharray="360.0" stroke-width="1" width="29.999999999999996" x="150" y="750" /><text dy="-0.3em" fill="black" font-family="Arial" font-size="10" font-style="normal" letter-spacing="0" style="text-anchor: middle" x="165.0" y="750">chr6</text><text dy="1em" fill="black" font-family="Arial" font-size="10" font-style="normal" letter-spacing="0" style="text-anchor: middle" x="165.0" y="900">chr6:129.408329-129.410329|0.002M</text><text dx="-0.5em" dy="0.3em" fill="black" font-family="Arial" font-size="10" font-style="normal" letter-spacing="0" style="text-anchor: end" x="150" y="825.0">single_translocation4</text><path d="M 215.0,850 v -100 C 215.0,725.0 165.0,725.0 165.0,750 v 100" fill="none" opacity="1" stroke="red" stroke-dasharray="100.0" /><rect fill="red" height="5" opacity="1" rx="0" ry="0" stroke="none" stroke-dasharray="20" stroke-width="1" width="5" x="212.5" y="845" /><rect fill="red" height="5" opacity="1" rx="0" ry="0" stroke="none" stroke-dasharray="20" stroke-width="1" width="5" x="162.5" y="845" /><rect fill="none" height="150" opacity="1" rx="0" ry="0" stroke="gray" stroke-dasharray="360.0" stroke-width="1" width="29.999999999999996" x="200.0" y="750" /><text dy="-0.3em" fill="black" font-family="Arial" font-size="10" font-style="normal" letter-spacing="0" style="text-anchor: middle" x="215.0" y="750">chr13</text><text dy="1em" fill="black" font-family="Arial" font-size="10" font-style="normal" letter-spacing="0" style="text-anchor: middle" x="215.0" y="900">chr13:111.257312-111.259312|0.002M</text><path d="M 215.0,850 v -100 C 215.0,725.0 165.0,725.0 165.0,750 v 100" fill="none" opacity="1" stroke="red" stroke-dasharray="100.0" /><rect fill="red" height="5" opacity="1" rx="0" ry="0" stroke="none" stroke-dasharray="20" stroke-width="1" width="5" x="212.5" y="845" /><rect fill="red" height="5" opacity="1" rx="0" ry="0" stroke="none" stroke-dasharray="20" stroke-width="1" width="5" x="162.5" y="845" /><rect fill="none" height="150" opacity="1" rx="0" ry="0" stroke="gray" stroke-dasharray="360.0" stroke-width="1" width="29.999999999999996" x="150" y="950" /><text dy="-0.3em" fill="black" font-family="Arial" font-size="10" font-style="normal" letter-spacing="0" style="text-anchor: middle" x="165.0" y="950">chr13</text><text dy="1em" fill="black" font-family="Arial" font-size="10" font-style="normal" letter-spacing="0" style="text-anchor: middle" x="165.0" y="1100">chr13:60.001628-60.003628|0.002M</text><text dx="-0.5em" dy="0.3em" fill="black" font-family="Arial" font-size="10" font-style="normal" letter-spacing="0" style="text-anchor: end" x="150" y="1025.0">single_translocation5</text><path d="M 215.0,1050 v -100 C 215.0,925.0 165.0,925.0 165.0,950 v 100" fill="none" opacity="1" stroke="red" stroke-dasharray="100.0" /><rect fill="none" height="150" opacity="1" rx="0" ry="0" stroke="gray" stroke-dasharray="360.0" stroke-width="1" width="29.999999999999996" x="200.0" y="950" /><text dy="-0.3em" fill="black" font-family="Arial" font-size="10" font-style="normal" letter-spacing="0" style="text-anchor: middle" x="215.0" y="950">chr18</text><text dy="1em" fill="black" font-family="Arial" font-size="10" font-style="normal" letter-spacing="0" style="text-anchor: middle" x="215.0" y="1100">chr18:36.708399-36.710399|0.002M</text><path d="M 215.0,1050 v -100 C 215.0,925.0 165.0,925.0 165.0,950 v 100" fill="none" opacity="1" stroke="red" stroke-dasharray="100.0" /><rect fill="none" height="150" opacity="1" rx="0" ry="0" stroke="gray" stroke-dasharray="360.0" stroke-width="1" width="29.999999999999996" x="150" y="1150" /><text dy="-0.3em" fill="black" font-family="Arial" font-size="10" font-style="normal" letter-spacing="0" style="text-anchor: middle" x="165.0" y="1150">chr15</text><text dy="1em" fill="black" font-family="Arial" font-size="10" font-style="normal" letter-spacing="0" style="text-anchor: middle" x="165.0" y="1300">chr15:29.019454-29.021454|0.002M</text><text dx="-0.5em" dy="0.3em" fill="black" font-family="Arial" font-size="10" font-style="normal" letter-spacing="0" style="text-anchor: end" x="150" y="1225.0">single_translocation6</text><path d="M 165.0,1250 v -100 C 165.0,1125.0 215.0,1125.0 215.0,1150 v 100" fill="none" opacity="1" stroke="green" stroke-dasharray="300.0" /><rect fill="green" height="5" opacity="1" rx="0" ry="0" stroke="none" stroke-dasharray="20" stroke-width="1" width="5" x="162.5" y="1245" /><rect fill="green" height="5" opacity="1" rx="0" ry="0" stroke="none" stroke-dasharray="20" stroke-width="1" width="5" x="212.5" y="1245" /><rect fill="none" height="150" opacity="1" rx="0" ry="0" stroke="gray" stroke-dasharray="360.0" stroke-width="1" width="29.999999999999996" x="200.0" y="1150" /><text dy="-0.3em" fill="black" font-family="Arial" font-size="10" font-style="normal" letter-spacing="0" style="text-anchor: middle" x="215.0" y="1150">chrX</text><text dy="1em" fill="black" font-family="Arial" font-size="10" font-style="normal" letter-spacing="0" style="text-anchor: middle" x="215.0" y="1300">chrX:139.982587-139.984587|0.002M</text><path d="M 165.0,1250 v -100 C 165.0,1125.0 215.0,1125.0 215.0,1150 v 100" fill="none" opacity="1" stroke="green" stroke-dasharray="300.0" /><rect fill="green" height="5" opacity="1" rx="0" ry="0" stroke="none" stroke-dasharray="20" stroke-width="1" width="5" x="162.5" y="1245" /><rect fill="green" height="5" opacity="1" rx="0" ry="0" stroke="none" stroke-dasharray="20" stroke-width="1" width="5" x="212.5" y="1245" /><rect fill="none" height="150" opacity="1" rx="0" ry="0" stroke="gray" stroke-dasharray="360.0" stroke-width="1" width="29.999999999999996" x="150" y="1350" /><text dy="-0.3em" fill="black" font-family="Arial" font-size="10" font-style="normal" letter-spacing="0" style="text-anchor: middle" x="165.0" y="1350">chr16</text><text dy="1em" fill="black" font-family="Arial" font-size="10" font-style="normal" letter-spacing="0" style="text-anchor: middle" x="165.0" y="1500">chr16:21.593442-21.595442|0.002M</text><text dx="-0.5em" dy="0.3em" fill="black" font-family="Arial" font-size="10" font-style="normal" letter-spacing="0" style="text-anchor: end" x="150" y="1425.0">single_translocation7</text><path d="M 165.0,1450 v -100 C 165.0,1375.0 215.0,1375.0 215.0,1350 v 100" fill="none" opacity="1" stroke="orange" stroke-dasharray="300.0" /><rect fill="none" height="150" opacity="1" rx="0" ry="0" stroke="gray" stroke-dasharray="360.0" stroke-width="1" width="29.999999999999996" x="200.0" y="1350" /><text dy="-0.3em" fill="black" font-family="Arial" font-size="10" font-style="normal" letter-spacing="0" style="text-anchor: middle" x="215.0" y="1350">chr16</text><text dy="1em" fill="black" font-family="Arial" font-size="10" font-style="normal" letter-spacing="0" style="text-anchor: middle" x="215.0" y="1500">chr16:22.709751-22.711751|0.002M</text><path d="M 165.0,1450 v -100 C 165.0,1375.0 215.0,1375.0 215.0,1350 v 100" fill="none" opacity="1" stroke="orange" stroke-dasharray="300.0" /><rect fill="none" height="150" opacity="1" rx="0" ry="0" stroke="gray" stroke-dasharray="360.0" stroke-width="1" width="29.999999999999996" x="150" y="1550" /><text dy="-0.3em" fill="black" font-family="Arial" font-size="10" font-style="normal" letter-spacing="0" style="text-anchor: middle" x="165.0" y="1550">chrX</text><text dy="1em" fill="black" font-family="Arial" font-size="10" font-style="normal" letter-spacing="0" style="text-anchor: middle" x="165.0" y="1700">chrX:22.2627-22.2647|0.002M</text><text dx="-0.5em" dy="0.3em" fill="black" font-family="Arial" font-size="10" font-style="normal" letter-spacing="0" style="text-anchor: end" x="150" y="1625.0">single_translocation8</text><path d="M 215.0,1650 v -100 C 215.0,1525.0 165.0,1525.0 165.0,1550 v 100" fill="none" opacity="1" stroke="red" stroke-dasharray="100.0" /><rect fill="red" height="5" opacity="1" rx="0" ry="0" stroke="none" stroke-dasharray="20" stroke-width="1" width="5" x="212.5" y="1645" /><rect fill="red" height="5" opacity="1" rx="0" ry="0" stroke="none" stroke-dasharray="20" stroke-width="1" width="5" x="162.5" y="1645" /><rect fill="none" height="150" opacity="1" rx="0" ry="0" stroke="gray" stroke-dasharray="360.0" stroke-width="1" width="29.999999999999996" x="200.0" y="1550" /><text dy="-0.3em" fill="black" font-family="Arial" font-size="10" font-style="normal" letter-spacing="0" style="text-anchor: middle" x="215.0" y="1550">chrX</text><text dy="1em" fill="black" font-family="Arial" font-size="10" font-style="normal" letter-spacing="0" style="text-anchor: middle" x="215.0" y="1700">chrX:33.830103-33.832103|0.002M</text><path d="M 215.0,1650 v -100 C 215.0,1525.0 165.0,1525.0 165.0,1550 v 100" fill="none" opacity="1" stroke="red" stroke-dasharray="100.0" /><rect fill="red" height="5" opacity="1" rx="0" ry="0" stroke="none" stroke-dasharray="20" stroke-width="1" width="5" x="212.5" y="1645" /><rect fill="red" height="5" opacity="1" rx="0" ry="0" stroke="none" stroke-dasharray="20" stroke-width="1" width="5" x="162.5" y="1645" /><svg height="40" width="368" x="1250.0" y="0"><defs /><svg height="10.0" width="368.0" x="0" y="0"><defs /><text dy="0.3em" fill="black" font-family="Arial" font-size="10" font-style="normal" letter-spacing="0" style="text-anchor: middle" x="184.0" y="5.0" /></svg><svg height="10.0" width="368.0" x="0" y="10.0"><defs /><text dy="0.3em" fill="black" font-family="Arial" font-size="10" font-style="normal" letter-spacing="0" style="text-anchor: middle" x="184.0" y="5.0">Join Type</text></svg><svg height="10.0" width="368.0" x="0" y="20.0"><defs /><text dy="0.3em" fill="black" font-family="Arial" font-size="10" font-style="normal" letter-spacing="0" style="text-anchor: middle" x="184.0" y="5.0">Info: Please tell something about this figure.</text></svg><svg height="10.0" width="368.0" x="0" y="30.0"><defs /><text dy="0.3em" fill="black" font-family="Arial" font-size="10" font-style="normal" letter-spacing="0" style="text-anchor: middle" x="184.0" y="5.0" /></svg></svg><svg height="70" width="224" x="1250.0" y="2200"><defs /><svg height="10.0" width="224.0" x="0" y="0"><defs /><text dy="0.3em" fill="black" font-family="Arial" font-size="10" font-style="normal" letter-spacing="0" style="text-anchor: middle" x="112.0" y="5.0" /></svg><svg height="10.0" width="224.0" x="0" y="10.0"><defs /><text dy="0.3em" fill="black" font-family="Arial" font-size="10" font-style="normal" letter-spacing="0" style="text-anchor: middle" x="112.0" y="5.0">Join Type</text></svg><svg height="10.0" width="224.0" x="0" y="20.0"><defs /><text dy="0.3em" fill="black" font-family="Arial" font-size="10" font-style="normal" letter-spacing="0" style="text-anchor: middle" x="112.0" y="5.0">v0.0</text></svg><svg height="10.0" width="224.0" x="0" y="30.0"><defs /><text dy="0.3em" fill="black" font-family="Arial" font-size="10" font-style="normal" letter-spacing="0" style="text-anchor: middle" x="112.0" y="5.0">Author: Lingxi Chen</text></svg><svg height="10.0" width="224.0" x="0" y="40.0"><defs /><text dy="0.3em" fill="black" font-family="Arial" font-size="10" font-style="normal" letter-spacing="0" style="text-anchor: middle" x="112.0" y="5.0">Email: chanlingxi@gmail.com</text></svg><svg height="10.0" width="224.0" x="0" y="50.0"><defs /><text dy="0.3em" fill="black" font-family="Arial" font-size="10" font-style="normal" letter-spacing="0" style="text-anchor: middle" x="112.0" y="5.0">City University of Hong Kong</text></svg><svg height="10.0" width="224.0" x="0" y="60.0"><defs /><text dy="0.3em" fill="black" font-family="Arial" font-size="10" font-style="normal" letter-spacing="0" style="text-anchor: middle" x="112.0" y="5.0" /></svg></svg></svg></svg>